<svg width="64" height="63" viewBox="0 0 64 63" fill="none" xmlns="http://www.w3.org/2000/svg">
<path d="M24.3672 38.7237V40.2255C24.3672 43.2999 25.606 46.2484 27.811 48.4223C30.0161 50.5963 33.0069 51.8176 36.1253 51.8176C39.2438 51.8176 42.2345 50.5963 44.4396 48.4223C46.6447 46.2484 47.8835 43.2999 47.8835 40.2255V35.9236C46.1394 35.3159 44.6694 34.1198 43.7332 32.5469C42.7971 30.974 42.4552 29.1254 42.7679 27.328C43.0806 25.5305 44.0278 23.8999 45.4421 22.7244C46.8563 21.5489 48.6466 20.9042 50.4964 20.9042C52.3463 20.9042 54.1365 21.5489 55.5508 22.7244C56.9651 23.8999 57.9123 25.5305 58.225 27.328C58.5377 29.1254 58.1958 30.974 57.2596 32.5469C56.3235 34.1198 54.8535 35.3159 53.1094 35.9236V40.2255C53.1094 44.6663 51.32 48.9252 48.1349 52.0654C44.9497 55.2055 40.6298 56.9696 36.1253 56.9696C31.6209 56.9696 27.3009 55.2055 24.1158 52.0654C20.9307 48.9252 19.1413 44.6663 19.1413 40.2255V38.7237C15.4878 38.1149 12.1711 36.2499 9.77951 33.4597C7.38794 30.6695 6.07609 27.1344 6.07666 23.4814V10.6014C6.07666 9.23495 6.62724 7.92451 7.60728 6.95832C8.58732 5.99213 9.91653 5.44933 11.3025 5.44933H13.9154C14.6084 5.44933 15.273 5.72073 15.7631 6.20382C16.2531 6.68692 16.5284 7.34214 16.5284 8.02534C16.5284 8.70854 16.2531 9.36376 15.7631 9.84686C15.273 10.33 14.6084 10.6014 13.9154 10.6014H11.3025V23.4814C11.3025 26.2142 12.4037 28.8351 14.3638 30.7675C16.3238 32.6999 18.9823 33.7855 21.7542 33.7855C24.5262 33.7855 27.1846 32.6999 29.1447 30.7675C31.1048 28.8351 32.2059 26.2142 32.2059 23.4814V10.6014H29.593C28.9 10.6014 28.2354 10.33 27.7454 9.84686C27.2554 9.36376 26.9801 8.70854 26.9801 8.02534C26.9801 7.34214 27.2554 6.68692 27.7454 6.20382C28.2354 5.72073 28.9 5.44933 29.593 5.44933H32.2059C33.5919 5.44933 34.9211 5.99213 35.9012 6.95832C36.8812 7.92451 37.4318 9.23495 37.4318 10.6014V23.4814C37.4324 27.1344 36.1205 30.6695 33.7289 33.4597C31.3374 36.2499 28.0207 38.1149 24.3672 38.7237ZM50.4964 31.2095C51.1894 31.2095 51.854 30.9381 52.3441 30.455C52.8341 29.9719 53.1094 29.3166 53.1094 28.6334C53.1094 27.9502 52.8341 27.295 52.3441 26.8119C51.854 26.3288 51.1894 26.0574 50.4964 26.0574C49.8034 26.0574 49.1388 26.3288 48.6488 26.8119C48.1588 27.295 47.8835 27.9502 47.8835 28.6334C47.8835 29.3166 48.1588 29.9719 48.6488 30.455C49.1388 30.9381 49.8034 31.2095 50.4964 31.2095Z" fill="#458FF6"/>
</svg>
