<svg width="169" height="43" viewBox="0 0 169 43" fill="none" xmlns="http://www.w3.org/2000/svg">
<path d="M17.8787 0.5L17.5605 0.5105C16.4932 0.589971 15.4956 1.06589 14.7678 1.84285C14.04 2.61981 13.6358 3.64039 13.6361 4.7V10.5863L8.48563 7.6442C7.51119 7.08727 6.35319 6.93634 5.26636 7.22462C4.17952 7.5129 3.25287 8.21677 2.69025 9.1814L0.568962 12.8186L0.414107 13.1084C-0.046107 14.0625 -0.125909 15.1533 0.190632 16.1631C0.507174 17.1728 1.19677 18.0273 2.12175 18.5558L7.27012 21.5L2.12175 24.4442C1.14734 25.0012 0.436333 25.9185 0.145131 26.9944C-0.146071 28.0704 0.00638497 29.2167 0.568962 30.1814L2.69025 33.8186L2.86632 34.0958C3.4708 34.9675 4.38514 35.5814 5.42678 35.8149C6.46843 36.0485 7.56073 35.8845 8.48563 35.3558L13.6361 32.4116V38.3C13.6361 39.4139 14.0831 40.4822 14.8787 41.2698C15.6744 42.0575 16.7535 42.5 17.8787 42.5H22.1213L22.4395 42.4895C23.5068 42.41 24.5044 41.9341 25.2322 41.1572C25.96 40.3802 26.3642 39.3596 26.3639 38.3V32.4116L31.5144 35.3579C32.4888 35.9148 33.6468 36.0658 34.7336 35.7775C35.8205 35.4892 36.7471 34.7853 37.3097 33.8207L39.431 30.1835L39.5859 29.8937C40.0461 28.9396 40.1259 27.8488 39.8094 26.839C39.4928 25.8293 38.8032 24.9748 37.8783 24.4463L32.7278 21.5L37.8783 18.5558C38.8527 17.9988 39.5637 17.0815 39.8549 16.0056C40.1461 14.9296 39.9936 13.7833 39.431 12.8186L37.3097 9.1814L37.1337 8.9042C36.5292 8.03253 35.6149 7.41864 34.5732 7.18507C33.5316 6.95151 32.4393 7.11546 31.5144 7.6442L26.3639 10.5842V4.7C26.3639 3.58609 25.9169 2.5178 25.1213 1.73015C24.3256 0.942499 23.2465 0.5 22.1213 0.5H17.8787Z" fill="#246DDB"/>
<path d="M51.196 34V10.2H54.834L65.238 27.574H63.334L73.568 10.2H77.206L77.24 34H73.058L73.024 16.762H73.908L65.204 31.28H63.232L54.392 16.762H55.412V34H51.196Z" fill="black"/>
<path d="M91.7947 34.238C89.7773 34.238 88.0093 33.8413 86.4907 33.048C84.9947 32.232 83.8273 31.1213 82.9887 29.716C82.1727 28.3107 81.7647 26.7127 81.7647 24.922C81.7647 23.1087 82.1613 21.5107 82.9547 20.128C83.7707 18.7227 84.8813 17.6233 86.2867 16.83C87.7147 16.0367 89.3353 15.64 91.1487 15.64C92.9167 15.64 94.492 16.0253 95.8747 16.796C97.2573 17.5667 98.3453 18.6547 99.1387 20.06C99.932 21.4653 100.329 23.12 100.329 25.024C100.329 25.2053 100.317 25.4093 100.295 25.636C100.295 25.8627 100.283 26.078 100.261 26.282H85.1307V23.46H98.0167L96.3507 24.344C96.3733 23.3013 96.158 22.3833 95.7047 21.59C95.2513 20.7967 94.628 20.1733 93.8347 19.72C93.064 19.2667 92.1687 19.04 91.1487 19.04C90.106 19.04 89.188 19.2667 88.3947 19.72C87.624 20.1733 87.012 20.808 86.5587 21.624C86.128 22.4173 85.9127 23.358 85.9127 24.446V25.126C85.9127 26.214 86.162 27.1773 86.6607 28.016C87.1593 28.8547 87.862 29.5007 88.7687 29.954C89.6753 30.4073 90.718 30.634 91.8967 30.634C92.9167 30.634 93.8347 30.4753 94.6507 30.158C95.4667 29.8407 96.192 29.342 96.8267 28.662L99.1047 31.28C98.2887 32.232 97.2573 32.9687 96.0107 33.49C94.7867 33.9887 93.3813 34.238 91.7947 34.238Z" fill="black"/>
<path d="M112.095 34.238C110.35 34.238 108.774 33.8527 107.369 33.082C105.986 32.2887 104.898 31.2007 104.105 29.818C103.312 28.4353 102.915 26.8033 102.915 24.922C102.915 23.0407 103.312 21.4087 104.105 20.026C104.898 18.6433 105.986 17.5667 107.369 16.796C108.774 16.0253 110.35 15.64 112.095 15.64C113.614 15.64 114.974 15.98 116.175 16.66C117.376 17.3173 118.328 18.326 119.031 19.686C119.734 21.046 120.085 22.7913 120.085 24.922C120.085 27.03 119.745 28.7753 119.065 30.158C118.385 31.518 117.444 32.538 116.243 33.218C115.042 33.898 113.659 34.238 112.095 34.238ZM112.605 30.6C113.625 30.6 114.532 30.3733 115.325 29.92C116.141 29.4667 116.787 28.8093 117.263 27.948C117.762 27.0867 118.011 26.078 118.011 24.922C118.011 23.7433 117.762 22.7347 117.263 21.896C116.787 21.0347 116.141 20.3773 115.325 19.924C114.532 19.4707 113.625 19.244 112.605 19.244C111.585 19.244 110.667 19.4707 109.851 19.924C109.058 20.3773 108.412 21.0347 107.913 21.896C107.437 22.7347 107.199 23.7433 107.199 24.922C107.199 26.078 107.437 27.0867 107.913 27.948C108.412 28.8093 109.058 29.4667 109.851 29.92C110.667 30.3733 111.585 30.6 112.605 30.6ZM118.113 34V29.716L118.283 24.888L117.943 20.06V8.772H122.159V34H118.113Z" fill="black"/>
<path d="M127.753 34V15.844H132.003V34H127.753ZM129.895 12.852C129.102 12.852 128.444 12.6027 127.923 12.104C127.424 11.6053 127.175 11.0047 127.175 10.302C127.175 9.57667 127.424 8.976 127.923 8.5C128.444 8.00133 129.102 7.752 129.895 7.752C130.688 7.752 131.334 7.99 131.833 8.466C132.354 8.91933 132.615 9.49733 132.615 10.2C132.615 10.948 132.366 11.5827 131.867 12.104C131.368 12.6027 130.711 12.852 129.895 12.852Z" fill="black"/>
<path d="M138.397 34.17C137.898 34.17 137.468 33.9887 137.105 33.626C136.765 33.2633 136.595 32.8213 136.595 32.3C136.595 31.756 136.765 31.314 137.105 30.974C137.468 30.634 137.898 30.464 138.397 30.464C138.896 30.464 139.315 30.634 139.655 30.974C140.018 31.314 140.199 31.756 140.199 32.3C140.199 32.8213 140.018 33.2633 139.655 33.626C139.315 33.9887 138.896 34.17 138.397 34.17Z" fill="black"/>
<path d="M156.882 34V30.056L156.78 29.41V22.814C156.78 21.2953 156.349 20.128 155.488 19.312C154.649 18.496 153.391 18.088 151.714 18.088C150.558 18.088 149.459 18.2807 148.416 18.666C147.373 19.0513 146.489 19.5613 145.764 20.196L144.676 18.394C145.583 17.6233 146.671 17.034 147.94 16.626C149.209 16.1953 150.547 15.98 151.952 15.98C154.264 15.98 156.043 16.558 157.29 17.714C158.559 18.8473 159.194 20.5813 159.194 22.916V34H156.882ZM150.728 34.17C149.391 34.17 148.223 33.9547 147.226 33.524C146.251 33.0707 145.503 32.4587 144.982 31.688C144.461 30.8947 144.2 29.988 144.2 28.968C144.2 28.0387 144.415 27.2 144.846 26.452C145.299 25.6813 146.025 25.0693 147.022 24.616C148.042 24.14 149.402 23.902 151.102 23.902H157.256V25.704H151.17C149.447 25.704 148.246 26.01 147.566 26.622C146.909 27.234 146.58 27.9933 146.58 28.9C146.58 29.92 146.977 30.736 147.77 31.348C148.563 31.96 149.674 32.266 151.102 32.266C152.462 32.266 153.629 31.96 154.604 31.348C155.601 30.7133 156.327 29.8067 156.78 28.628L157.324 30.294C156.871 31.4727 156.077 32.4133 154.944 33.116C153.833 33.8187 152.428 34.17 150.728 34.17Z" fill="black"/>
<path d="M165.751 34V16.15H168.165V34H165.751ZM166.975 12.206C166.476 12.206 166.057 12.036 165.717 11.696C165.377 11.356 165.207 10.948 165.207 10.472C165.207 9.996 165.377 9.59933 165.717 9.282C166.057 8.942 166.476 8.772 166.975 8.772C167.473 8.772 167.893 8.93067 168.233 9.248C168.573 9.56533 168.743 9.962 168.743 10.438C168.743 10.9367 168.573 11.356 168.233 11.696C167.915 12.036 167.496 12.206 166.975 12.206Z" fill="black"/>
</svg>
